<?xml version="1.0" standalone="no"?>
<!DOCTYPE svg PUBLIC "-//W3C//DTD SVG 20010904//EN"
 "http://www.w3.org/TR/2001/REC-SVG-20010904/DTD/svg10.dtd">
<svg version="1.0" xmlns="http://www.w3.org/2000/svg"
 width="892.000000pt" height="221.000000pt" viewBox="0 0 892.000000 221.000000"
 preserveAspectRatio="xMidYMid meet">

<g transform="translate(0.000000,221.000000) scale(0.100000,-0.100000)"
fill="#000000" stroke="none">
<path d="M1328 1925 c-188 -46 -372 -187 -477 -365 -24 -41 -51 -85 -59 -98
-14 -21 -11 -20 52 9 96 45 227 58 359 36 100 -17 234 -64 275 -95 l24 -19
-52 -102 c-31 -63 -56 -101 -63 -98 -7 3 -48 21 -92 41 -147 64 -292 79 -337
34 -26 -26 -24 -79 5 -105 34 -31 70 -47 217 -93 74 -23 148 -49 163 -57 81
-41 157 -148 157 -220 0 -18 5 -33 10 -33 6 0 10 7 10 15 0 9 18 35 41 60 65
70 121 87 317 93 178 5 174 3 147 68 -32 78 -178 97 -316 40 -35 -15 -68 -28
-73 -29 -11 -3 -78 153 -72 168 6 15 177 72 260 86 38 6 106 9 150 6 144 -9
242 -63 294 -161 l27 -51 3 -312 3 -313 -130 0 -131 0 0 46 0 46 -42 -37 c-58
-49 -130 -68 -232 -63 -140 7 -222 69 -257 192 -10 34 -18 52 -18 40 -2 -36
-62 -114 -115 -150 -153 -101 -381 -110 -598 -22 -92 37 -188 96 -188 115 0 7
9 28 20 48 11 20 34 63 50 95 l30 60 60 -41 c168 -114 370 -150 442 -79 33 34
36 67 7 104 -27 35 -60 51 -156 77 -130 35 -260 89 -302 125 -48 41 -81 107
-90 177 l-6 52 -154 -260 c-85 -143 -185 -313 -224 -378 -62 -105 -70 -124
-75 -182 -8 -108 44 -206 133 -246 38 -18 131 -19 2171 -19 2073 0 2133 1
2206 19 98 25 195 75 285 145 86 68 163 165 163 208 l0 30 -42 -36 c-66 -57
-137 -79 -235 -73 -101 6 -173 37 -238 102 -49 49 -99 143 -110 206 l-7 39
-289 0 -289 0 19 -38 c23 -45 66 -87 104 -101 69 -26 174 -4 252 53 19 14 25
10 90 -50 l70 -64 -43 -39 c-52 -48 -116 -79 -201 -97 -281 -59 -514 84 -550
338 -10 69 -1 181 18 231 l11 27 -53 0 c-74 0 -148 -37 -184 -91 l-28 -42 -3
-234 -3 -233 -130 0 -129 0 0 415 0 415 130 0 130 0 0 -67 0 -68 43 47 c48 52
110 85 181 94 l46 7 0 -119 0 -118 28 45 c16 24 48 61 72 83 151 136 438 137
587 2 45 -40 98 -133 111 -192 l8 -39 18 60 c34 117 99 195 205 243 48 22 70
26 151 26 109 0 161 -18 223 -76 l37 -35 0 208 0 209 133 0 132 0 -3 -570 -3
-570 141 0 140 0 0 149 0 148 153 6 c175 6 235 20 317 75 108 73 155 181 148
341 -6 124 -30 183 -104 250 -75 68 -138 90 -301 104 l-131 11 31 60 c25 48
31 71 30 120 0 99 -35 161 -122 217 l-45 29 -2140 -1 c-1784 -1 -2150 -3
-2198 -14z m4642 -657 c59 -30 83 -74 83 -148 0 -74 -24 -118 -83 -147 -38
-20 -60 -23 -162 -23 l-118 0 0 170 0 170 118 0 c102 0 124 -3 162 -22z
m-3130 -7 c118 -20 215 -74 270 -151 l20 -29 -95 -57 -95 -57 -28 28 c-52 53
-150 72 -211 40 -149 -76 -129 -352 27 -394 70 -19 151 4 190 54 11 14 24 25
28 25 8 0 172 -95 183 -106 10 -10 -52 -84 -95 -112 -137 -92 -330 -107 -480
-38 -287 132 -296 597 -14 750 86 47 196 64 300 47z"/>
<path d="M6457 1626 c-21 -8 -47 -22 -57 -31 -27 -25 -43 -80 -35 -122 14 -76
61 -113 144 -113 86 0 139 65 128 157 -4 38 -12 54 -41 80 -20 18 -44 33 -55
33 -11 0 -25 2 -33 5 -7 2 -30 -2 -51 -9z"/>
<path d="M8450 1000 l0 -570 130 0 130 0 0 570 0 570 -130 0 -130 0 0 -570z"/>
<path d="M7870 1259 c-76 -13 -150 -50 -206 -101 -92 -84 -128 -174 -128 -313
0 -153 47 -259 149 -336 165 -124 455 -114 608 22 l38 34 -70 69 -70 70 -23
-21 c-39 -36 -90 -55 -154 -61 -84 -6 -144 22 -185 86 -16 25 -29 50 -29 54 0
4 131 8 291 8 l292 0 -5 98 c-11 197 -103 330 -263 378 -66 19 -176 25 -245
13z m204 -218 c19 -18 37 -45 41 -60 3 -14 8 -34 11 -43 5 -17 -7 -18 -160
-18 -152 0 -166 2 -166 18 0 30 44 95 80 120 30 20 44 23 97 20 55 -3 67 -8
97 -37z"/>
<path d="M6370 845 l0 -415 130 0 130 0 0 415 0 415 -130 0 -130 0 0 -415z"/>
<path d="M6690 1241 c6 -11 61 -98 123 -193 63 -95 117 -178 120 -184 4 -7
-53 -101 -126 -210 -72 -110 -136 -205 -140 -211 -6 -10 23 -13 138 -13 l146
0 81 125 c44 69 83 125 87 125 3 0 38 -55 77 -122 l71 -123 152 -3 c83 -1 151
0 151 3 0 3 -59 93 -131 201 -71 107 -133 202 -136 210 -3 8 49 97 121 207 69
106 126 197 126 201 0 3 -64 5 -142 4 l-143 -3 -68 -110 c-37 -60 -72 -110
-77 -110 -5 0 -38 50 -73 110 l-64 110 -152 3 c-149 2 -152 2 -141 -17z"/>
<path d="M4031 1063 c-36 -18 -76 -71 -86 -115 l-7 -28 167 0 168 0 -7 31
c-21 107 -135 161 -235 112z"/>
<path d="M4906 1046 c-54 -20 -93 -61 -112 -119 -33 -99 1 -224 75 -274 48
-32 144 -32 192 0 120 81 113 318 -10 382 -44 22 -102 27 -145 11z"/>
<path d="M1793 770 c-47 -19 -58 -92 -20 -136 19 -22 34 -28 79 -32 105 -8
188 53 188 141 l0 37 -112 -1 c-62 0 -123 -4 -135 -9z"/>
</g>
</svg>
